<svg width="18.697021" height="17.832138" viewBox="0 0 18.697 17.8321" fill="none" xmlns="http://www.w3.org/2000/svg" xmlns:xlink="http://www.w3.org/1999/xlink">
	<desc>
			Created with Pixso.
	</desc>
	<defs/>
	<g opacity="0.240000">
		<path id="Star-7-path" d="M13.5793 17.6312C14.7119 18.2242 15.8047 17.4345 15.5881 16.1776L14.7766 11.4644C14.7844 11.5102 18.2029 8.16277 18.2029 8.16277C19.1191 7.27332 18.7026 5.99414 17.4355 5.81078L12.6841 5.12312C12.7302 5.12981 10.5901 0.85733 10.5901 0.85733C10.0239 -0.285339 8.67358 -0.286209 8.10693 0.85733L5.98193 5.14558C6.00269 5.10388 1.26147 5.81078 1.26147 5.81078C-0.00463867 5.994 -0.422852 7.27264 0.494141 8.16277L3.93237 11.5007C3.89893 11.4682 3.10889 16.1776 3.10889 16.1776C2.89258 17.4335 3.98438 18.2246 5.11768 17.6312L9.36768 15.4059C9.32642 15.4276 13.5793 17.6312 13.5793 17.6312Z" fill="#000000" fill-opacity="1.000000" fill-rule="nonzero"/>
	</g>
</svg>
