<svg width="18.000244" height="20.000214" viewBox="0 0 18.0002 20.0002" fill="none" xmlns="http://www.w3.org/2000/svg" xmlns:xlink="http://www.w3.org/1999/xlink">
	<desc>
			Created with Pixso.
	</desc>
	<defs/>
	<g opacity="0.240000">
		<path id="Combined-Shape-path" d="M18 14.0911C18 15.8484 16.5896 17.2729 14.8501 17.2729C13.1104 17.2729 11.7 15.8484 11.7 14.0911C11.7 12.3338 13.1104 10.9093 14.8501 10.9093C15.333 10.9093 15.7908 11.0192 16.2 11.2155L16.2 5.6929L6.30005 8.04071L6.30005 16.8184C6.30005 18.5757 4.88965 20.0002 3.1499 20.0002C1.4104 20.0002 0 18.5757 0 16.8184C0 15.0611 1.4104 13.6366 3.1499 13.6366C3.63306 13.6366 4.09082 13.7464 4.5 13.9427L4.5 3.63657C4.55127 3.23962 4.82617 2.8862 5.22803 2.79092L16.8943 0.0242615C17.3782 -0.0904846 17.8625 0.212738 17.9761 0.701508C17.9939 0.777893 18.0015 0.854309 18 0.929291L18 14.0911Z" fill="#000000" fill-opacity="1.000000" fill-rule="nonzero"/>
	</g>
</svg>
