<svg width="18.333740" height="12.444458" viewBox="0 0 18.3337 12.4445" fill="none" xmlns="http://www.w3.org/2000/svg" xmlns:xlink="http://www.w3.org/1999/xlink">
	<desc>
			Created with Pixso.
	</desc>
	<defs/>
	<g opacity="0.240000">
		<path id="Combined-Shape-path" d="M9.16675 0.888977C8.24829 0.888977 7.60889 0.7677 6.62305 0.411346C6.59155 0.399994 6.59155 0.399994 6.56055 0.388763C5.74292 0.0931091 5.33862 0 4.6123 0C3.18726 0 1.55273 1.69714 0.857666 3.8241C0.220215 5.77475 0.0559082 6.9805 0 9.76059C0.0402832 11.7841 0.601074 12.4368 1.82812 12.4445C2.61304 12.44 3.14722 12.1033 3.75757 11.3473C3.8833 11.1913 4.29468 10.6424 4.31323 10.6183C5.57129 8.99094 7.00269 8.01407 9.16113 8.00003C11.3311 8.01407 12.7622 8.99094 14.0205 10.6183C14.0391 10.6424 14.4502 11.1913 14.5762 11.3473C15.1865 12.1033 15.7207 12.44 16.4944 12.4445C17.7327 12.4368 18.2932 11.7841 18.3337 9.79489C18.2778 6.9805 18.1135 5.77475 17.4761 3.8241C16.7808 1.69714 15.1465 0 13.7214 0C12.9951 0 12.5908 0.0931091 11.7732 0.388763C11.7422 0.399994 11.7422 0.399994 11.7107 0.411346C10.7249 0.7677 10.0852 0.888977 9.16675 0.888977Z" fill="#000000" fill-opacity="1.000000" fill-rule="nonzero"/>
	</g>
</svg>
